<svg id="Capa_1" enable-background="new 0 0 510.692 510.692" height="512" viewBox="0 0 510.692 510.692" width="512" xmlns="http://www.w3.org/2000/svg"><g><path d="m484.293 406.211h-118.863c-10.438 0-18.9-8.462-18.9-18.9v-12.868c0-10.438 8.462-18.9 18.9-18.9h118.863c10.438 0 18.9 8.462 18.9 18.9v12.868c0 10.438-8.462 18.9-18.9 18.9z" fill="#e27d47"/><path d="m484.293 355.542h-21.437c10.438 0 18.9 8.462 18.9 18.9v12.868c0 10.438-8.462 18.9-18.9 18.9h21.437c10.438 0 18.9-8.462 18.9-18.9v-12.868c0-10.438-8.462-18.9-18.9-18.9z" fill="#dd544f"/><path d="m484.293 355.542h-118.863c-10.438 0-18.9-8.462-18.9-18.9v-12.868c0-10.438 8.462-18.9 18.9-18.9h118.863c10.438 0 18.9 8.462 18.9 18.9v12.868c0 10.438-8.462 18.9-18.9 18.9z" fill="#ffc250"/><path d="m484.293 304.873h-21.437c10.438 0 18.9 8.462 18.9 18.9v12.868c0 10.438-8.462 18.9-18.9 18.9h21.437c10.438 0 18.9-8.462 18.9-18.9v-12.868c0-10.438-8.462-18.9-18.9-18.9z" fill="#ebb044"/><path d="m484.293 304.873h-118.863c-10.438 0-18.9-8.462-18.9-18.9v-12.868c0-10.438 8.462-18.9 18.9-18.9h118.863c10.438 0 18.9 8.462 18.9 18.9v12.868c0 10.438-8.462 18.9-18.9 18.9z" fill="#e27d47"/><path d="m484.293 254.204h-21.437c10.438 0 18.9 8.462 18.9 18.9v12.868c0 10.438-8.462 18.9-18.9 18.9h21.437c10.438 0 18.9-8.462 18.9-18.9v-12.868c0-10.438-8.462-18.9-18.9-18.9z" fill="#dd544f"/><path d="m484.293 254.204h-118.863c-10.438 0-18.9-8.462-18.9-18.9v-12.868c0-10.438 8.462-18.9 18.9-18.9h118.863c10.438 0 18.9 8.462 18.9 18.9v12.868c0 10.438-8.462 18.9-18.9 18.9z" fill="#ffc250"/><path d="m484.293 203.535h-21.437c10.438 0 18.9 8.462 18.9 18.9v12.868c0 10.438-8.462 18.9-18.9 18.9h21.437c10.438 0 18.9-8.462 18.9-18.9v-12.868c0-10.438-8.462-18.9-18.9-18.9z" fill="#ebb044"/><path d="m484.293 203.535h-118.863c-10.438 0-18.9-8.462-18.9-18.9v-12.868c0-10.438 8.462-18.9 18.9-18.9h118.863c10.438 0 18.9 8.462 18.9 18.9v12.868c0 10.438-8.462 18.9-18.9 18.9z" fill="#e27d47"/><path d="m484.293 152.866h-21.437c10.438 0 18.9 8.462 18.9 18.9v12.868c0 10.438-8.462 18.9-18.9 18.9h21.437c10.438 0 18.9-8.462 18.9-18.9v-12.868c0-10.438-8.462-18.9-18.9-18.9z" fill="#dd544f"/><path d="m145.263 406.211h-118.863c-10.438 0-18.9-8.462-18.9-18.9v-12.868c0-10.438 8.462-18.9 18.9-18.9h118.863c10.438 0 18.9 8.462 18.9 18.9v12.868c0 10.438-8.462 18.9-18.9 18.9z" fill="#ffc250"/><path d="m145.263 355.542h-56.166v50.669h56.166c10.438 0 18.9-8.462 18.9-18.9v-12.868c0-10.439-8.462-18.901-18.9-18.901z" fill="#ebb044"/><path d="m145.263 355.542h-118.863c-10.438 0-18.9-8.462-18.9-18.9v-12.868c0-10.438 8.462-18.9 18.9-18.9h118.863c10.438 0 18.9 8.462 18.9 18.9v12.868c0 10.438-8.462 18.9-18.9 18.9z" fill="#e27d47"/><path d="m145.263 304.873h-56.166v50.669h56.166c10.438 0 18.9-8.462 18.9-18.9v-12.868c0-10.439-8.462-18.901-18.9-18.901z" fill="#dd544f"/><path d="m145.263 304.873h-118.863c-10.438 0-18.9-8.462-18.9-18.9v-12.868c0-10.438 8.462-18.9 18.9-18.9h118.863c10.438 0 18.9 8.462 18.9 18.9v12.868c0 10.438-8.462 18.9-18.9 18.9z" fill="#ffc250"/><path d="m145.263 254.204h-56.166v50.669h56.166c10.438 0 18.9-8.462 18.9-18.9v-12.868c0-10.439-8.462-18.901-18.9-18.901z" fill="#ebb044"/><path d="m389.224 431.545h-266.449c-7.843 0-14.201-6.358-14.201-14.201v-323.997c0-7.843 6.358-14.201 14.201-14.201h266.448c7.843 0 14.201 6.358 14.201 14.201v323.997c0 7.843-6.357 14.201-14.2 14.201z" fill="#365e7d"/><path d="m389.224 79.146h-19.478c7.843 0 14.201 6.358 14.201 14.201v323.998c0 7.843-6.358 14.201-14.201 14.201h19.478c7.843 0 14.201-6.358 14.201-14.201v-323.998c-.001-7.843-6.358-14.201-14.201-14.201z" fill="#2b4d66"/><path d="m354.509 161.242h-197.019c-3.729 0-6.752-3.023-6.752-6.752v-36.079c0-3.729 3.023-6.752 6.752-6.752h197.019c3.729 0 6.752 3.023 6.752 6.752v36.079c0 3.729-3.023 6.752-6.752 6.752z" fill="#d3effb"/><path d="m354.509 111.66h-19.478c3.729 0 6.752 3.023 6.752 6.752v36.079c0 3.729-3.023 6.752-6.752 6.752h19.478c3.729 0 6.752-3.023 6.752-6.752v-36.079c0-3.729-3.023-6.752-6.752-6.752z" fill="#b1e4f9"/><path d="m225.553 283.096h-63.847c-6.058 0-10.968-4.911-10.968-10.968v-50.692c0-6.058 4.911-10.968 10.968-10.968h63.847c6.058 0 10.968 4.911 10.968 10.968v50.692c.001 6.058-4.91 10.968-10.968 10.968z" fill="#e27d47"/><path d="m225.554 210.468h-18.494c6.058 0 10.968 4.911 10.968 10.968v50.692c0 6.058-4.911 10.968-10.968 10.968h18.494c6.057 0 10.968-4.911 10.968-10.968v-50.692c0-6.058-4.911-10.968-10.968-10.968z" fill="#dd544f"/><path d="m350.292 283.096h-63.847c-6.058 0-10.968-4.911-10.968-10.968v-50.692c0-6.058 4.911-10.968 10.968-10.968h63.847c6.058 0 10.968 4.911 10.968 10.968v50.692c.001 6.058-4.91 10.968-10.968 10.968z" fill="#e27d47"/><path d="m350.292 210.468h-18.494c6.058 0 10.968 4.911 10.968 10.968v50.692c0 6.058-4.911 10.968-10.968 10.968h18.494c6.057 0 10.968-4.911 10.968-10.968v-50.692c.001-6.058-4.91-10.968-10.968-10.968z" fill="#dd544f"/><path d="m225.553 384.717h-63.847c-6.058 0-10.968-4.911-10.968-10.968v-50.692c0-6.058 4.911-10.968 10.968-10.968h63.847c6.058 0 10.968 4.911 10.968 10.968v50.692c.001 6.057-4.91 10.968-10.968 10.968z" fill="#e27d47"/><path d="m225.554 312.089h-18.494c6.058 0 10.968 4.911 10.968 10.968v50.692c0 6.058-4.911 10.968-10.968 10.968h18.494c6.057 0 10.968-4.911 10.968-10.968v-50.692c0-6.058-4.911-10.968-10.968-10.968z" fill="#dd544f"/><path d="m350.292 384.717h-63.847c-6.058 0-10.968-4.911-10.968-10.968v-50.692c0-6.058 4.911-10.968 10.968-10.968h63.847c6.058 0 10.968 4.911 10.968 10.968v50.692c.001 6.057-4.91 10.968-10.968 10.968z" fill="#e27d47"/><path d="m350.292 312.089h-18.494c6.058 0 10.968 4.911 10.968 10.968v50.692c0 6.058-4.911 10.968-10.968 10.968h18.494c6.057 0 10.968-4.911 10.968-10.968v-50.692c.001-6.058-4.91-10.968-10.968-10.968z" fill="#dd544f"/><g><path d="m510.692 184.635v-12.869c0-14.557-11.843-26.399-26.399-26.399h-73.368v-52.02c0-11.966-9.735-21.7-21.701-21.7h-195.074c-4.143 0-7.5 3.357-7.5 7.5s3.357 7.5 7.5 7.5h195.073c3.695 0 6.701 3.006 6.701 6.7v323.998c0 3.694-3.006 6.7-6.701 6.7h-266.448c-3.694 0-6.7-3.006-6.7-6.7v-323.998c0-3.694 3.006-6.7 6.7-6.7h41.388c4.143 0 7.5-3.357 7.5-7.5s-3.357-7.5-7.5-7.5h-41.388c-11.966 0-21.7 9.734-21.7 21.7v153.357h-74.676c-14.556.001-26.399 11.843-26.399 26.4v12.868c0 7.404 3.068 14.102 7.994 18.901-4.926 4.798-7.994 11.496-7.994 18.9v12.868c0 7.404 3.068 14.102 7.994 18.901-4.926 4.798-7.994 11.496-7.994 18.9v12.868c0 14.558 11.843 26.4 26.399 26.4h74.676v3.635c0 11.966 9.734 21.7 21.7 21.7h266.448c11.966 0 21.701-9.734 21.701-21.7v-3.634h27.848c4.143 0 7.5-3.357 7.5-7.5s-3.357-7.5-7.5-7.5h-27.848v-35.669h73.367c6.286 0 11.4 5.114 11.4 11.4v12.868c0 6.286-5.113 11.4-11.399 11.4h-15.532c-4.143 0-7.5 3.357-7.5 7.5s3.357 7.5 7.5 7.5h15.533c14.557 0 26.399-11.843 26.399-26.4v-12.868c0-7.404-3.068-14.102-7.994-18.901 4.926-4.798 7.994-11.497 7.994-18.901v-12.868c0-7.404-3.068-14.102-7.994-18.9 4.926-4.799 7.994-11.497 7.994-18.901v-12.868c0-7.404-3.068-14.102-7.994-18.9 4.926-4.799 7.994-11.497 7.994-18.901v-12.868c0-7.404-3.068-14.102-7.994-18.9 4.927-4.797 7.994-11.495 7.994-18.899zm-409.617 163.407h-74.676c-6.286 0-11.399-5.114-11.399-11.4v-12.868c0-6.286 5.113-11.399 11.399-11.399h74.676zm-86.075-74.938c0-6.286 5.113-11.399 11.399-11.399h74.676v35.668h-74.676c-6.286 0-11.399-5.114-11.399-11.4zm11.399 125.606c-6.286 0-11.399-5.114-11.399-11.4v-12.868c0-6.286 5.113-11.399 11.399-11.399h74.676v35.668h-74.676zm457.894-238.343c6.286 0 11.399 5.113 11.399 11.399v12.869c0 6.286-5.113 11.399-11.399 11.399h-73.368v-35.668h73.368zm-73.368 152.007h73.368c6.286 0 11.399 5.113 11.399 11.399v12.868c0 6.286-5.113 11.4-11.399 11.4h-73.368zm0-50.669h73.368c6.286 0 11.399 5.113 11.399 11.399v12.868c0 6.286-5.113 11.4-11.399 11.4h-73.368zm0-50.669h73.368c6.286 0 11.399 5.113 11.399 11.399v12.868c0 6.286-5.113 11.4-11.399 11.4h-73.368z"/><path d="m368.761 118.412c0-7.858-6.394-14.252-14.252-14.252h-197.019c-7.858 0-14.252 6.394-14.252 14.252v36.079c0 7.858 6.394 14.251 14.252 14.251h197.019c7.858 0 14.252-6.393 14.252-14.251zm-15 35.33h-195.523v-34.582h195.522v34.582z"/><path d="m244.021 221.436c0-10.184-8.284-18.468-18.468-18.468h-63.847c-10.184 0-18.469 8.284-18.469 18.468v50.691c0 10.184 8.285 18.469 18.469 18.469h63.847c10.184 0 18.468-8.285 18.468-18.469zm-15 50.691c0 1.913-1.556 3.469-3.468 3.469h-63.847c-1.913 0-3.469-1.556-3.469-3.469v-50.691c0-1.912 1.556-3.468 3.469-3.468h63.847c1.912 0 3.468 1.556 3.468 3.468z"/><path d="m368.761 221.436c0-10.184-8.285-18.468-18.469-18.468h-63.847c-10.184 0-18.468 8.284-18.468 18.468v50.691c0 10.184 8.284 18.469 18.468 18.469h63.847c10.184 0 18.469-8.285 18.469-18.469zm-15 50.691c0 1.913-1.556 3.469-3.469 3.469h-63.847c-1.912 0-3.468-1.556-3.468-3.469v-50.691c0-1.912 1.556-3.468 3.468-3.468h63.847c1.913 0 3.469 1.556 3.469 3.468z"/><path d="m350.292 304.588h-63.847c-10.184 0-18.468 8.285-18.468 18.469v50.691c0 10.184 8.284 18.469 18.468 18.469h63.847c10.184 0 18.469-8.285 18.469-18.469v-50.691c0-10.183-8.285-18.469-18.469-18.469zm3.469 69.161c0 1.913-1.556 3.469-3.469 3.469h-63.847c-1.912 0-3.468-1.556-3.468-3.469v-50.691c0-1.913 1.556-3.469 3.468-3.469h63.847c1.913 0 3.469 1.556 3.469 3.469z"/><path d="m225.554 377.217h-16.93c-4.143 0-7.5 3.357-7.5 7.5s3.357 7.5 7.5 7.5h16.93c10.184 0 18.468-8.285 18.468-18.469v-50.691c0-10.184-8.284-18.468-18.468-18.468h-63.847c-10.184 0-18.469 8.284-18.469 18.468v50.691c0 10.184 8.285 18.469 18.469 18.469h16.93c4.143 0 7.5-3.357 7.5-7.5s-3.357-7.5-7.5-7.5h-16.93c-1.913 0-3.469-1.556-3.469-3.469v-50.691c0-1.912 1.556-3.468 3.469-3.468h63.847c1.912 0 3.468 1.556 3.468 3.468v50.691c-.001 1.914-1.556 3.469-3.468 3.469z"/></g></g></svg>