<svg height="512" viewBox="0 0 64 64" width="512" xmlns="http://www.w3.org/2000/svg"><g id="wallet-house-building-coin"><rect fill="#ff9811" height="28" rx="2" width="50" x="7" y="33"/><path d="m57 41v12h-6a6 6 0 0 1 -6-6 6.009 6.009 0 0 1 6-6z" fill="#ff5023"/><circle cx="51" cy="47" fill="#fff" r="2"/><path d="m45 15.74v21.26h-32v-21.26l16-6.74z" fill="#e0e0e2"/><path d="m35 18h6v5h-6z" fill="#2488ff"/><path d="m17 18h6v5h-6z" fill="#2488ff"/><path d="m36 7.95 4.98 2.09 4.96 2.09 2.06.87v4l-3-1.26-16-6.74-16 6.74-3 1.26v-4l2.06-.87 16.94-7.13z" fill="#ff9811"/><path d="m41 3v7l-.02.04-4.98-2.09v-4.95z" fill="#d8d7da"/><path d="m29 25a5 5 0 0 1 5 5v7a0 0 0 0 1 0 0h-10a0 0 0 0 1 0 0v-7a5 5 0 0 1 5-5z" fill="#c0ab91"/><path d="m45 23a7 7 0 0 1 7 7 7.128 7.128 0 0 1 -.55 2.74 7 7 0 1 1 -6.45-9.74z" fill="#ffda44"/><path d="m55 32h-2.26a8.242 8.242 0 0 0 .26-2 8 8 0 0 0 -7-7.93v-4.83l1.61.68a1.087 1.087 0 0 0 .39.08 1.011 1.011 0 0 0 1-1v-4a.993.993 0 0 0 -.61-.92l-6.39-2.69v-6.39a1 1 0 0 0 -1-1h-5a1 1 0 0 0 -1 1v3.44l-5.61-2.36a.963.963 0 0 0 -.78 0l-19 8a.993.993 0 0 0 -.61.92v4a1 1 0 0 0 .45.83.985.985 0 0 0 .94.09l1.61-.68v14.76h-3a3.009 3.009 0 0 0 -3 3v24a3.009 3.009 0 0 0 3 3h46a3.009 3.009 0 0 0 3-3v-24a3.009 3.009 0 0 0 -3-3zm-4-2a6 6 0 1 1 -6-6 6 6 0 0 1 6 6zm-22-6a6 6 0 0 0 -6 6v6h-9v-19.6l15-6.32 15 6.32v5.67a7.849 7.849 0 0 0 -2 .52v-4.59a1 1 0 0 0 -1-1h-6a1 1 0 0 0 -1 1v5a1 1 0 0 0 1 1h4.73a7.958 7.958 0 0 0 0 12h-4.73v-6a6 6 0 0 0 -6-6zm4 6v6h-8v-6a4 4 0 0 1 8 0zm7-11v3h-4v-3zm-3-15h3v4.55l-3-1.27zm-26 11.49v-1.83l18-7.58 18 7.58v1.83l-17.61-7.41a.991.991 0 0 0 -.78 0zm45 36.51h-5a5 5 0 0 1 0-10h5zm0-12h-5a7 7 0 0 0 0 14h5v5a1 1 0 0 1 -1 1h-46a1 1 0 0 1 -1-1v-24a1 1 0 0 1 1-1h3v2h-2v2h43v-2h-2.73a8.139 8.139 0 0 0 1.73-2.14v.14h3a1 1 0 0 1 1 1z"/><path d="m48 47a3 3 0 1 0 3-3 3 3 0 0 0 -3 3zm4 0a1 1 0 1 1 -1-1 1 1 0 0 1 1 1z"/><path d="m17 24h6a1 1 0 0 0 1-1v-5a1 1 0 0 0 -1-1h-6a1 1 0 0 0 -1 1v5a1 1 0 0 0 1 1zm1-5h4v3h-4z"/><path d="m26 31h2v2h-2z"/><path d="m44 25v1.051a2.5 2.5 0 0 0 .5 4.949h1a.5.5 0 0 1 0 1h-1a.5.5 0 0 1 -.5-.5h-2a2.5 2.5 0 0 0 2 2.449v1.051h2v-1.051a2.5 2.5 0 0 0 -.5-4.949h-1a.5.5 0 0 1 0-1h1a.5.5 0 0 1 .5.5h2a2.5 2.5 0 0 0 -2-2.449v-1.051z"/></g></svg>